Coordinates
version=1
nRows=16
nColumns=36
inDegrees=yes

Units are S.I. units (second, meters, Newtons, ...)
If the header above contains a line with 'inDegrees', this indicates whether rotational values are in degrees (yes) or radians (no).

endheader
time	pelvis_tilt	pelvis_list	pelvis_rotation	pelvis_tx	pelvis_ty	pelvis_tz	hip_flexion_r	hip_adduction_r	hip_rotation_r	knee_angle_r	knee_angle_r_beta	ankle_angle_r	subtalar_angle_r	mtp_angle_r	hip_flexion_l	hip_adduction_l	hip_rotation_l	knee_angle_l	knee_angle_l_beta	ankle_angle_l	subtalar_angle_l	mtp_angle_l	lumbar_extension	lumbar_bending	lumbar_rotation	arm_flex_r	arm_add_r	arm_rot_r	elbow_flex_r	pro_sup_r	arm_flex_l	arm_add_l	arm_rot_l	elbow_flex_l	pro_sup_l
     10.49000000	    -11.46890010	      1.73825837	      2.06146650	     -0.51387664	      0.57699302	     -0.60606239	     98.22406075	     -9.74947552	      6.33673624	     99.19456006	      1.73127167	     24.58580586	      2.72503557	     -7.49999987	     97.54256266	     -5.86315679	      2.15051193	     96.37959561	      1.68214128	     17.42865109	     -8.37160830	     -7.49999987	    -22.93233818	     -0.72402953	     -4.43993103	     23.91680353	     -8.49487810	     -3.79011636	    121.26131975	    109.07797821	     19.21080445	     -8.51156252	     -7.53063545	    124.22631163	    103.99257214
     10.50000000	    -10.42149375	      1.74238391	      2.08646018	     -0.51795147	      0.57493501	     -0.60660042	     97.79957009	     -9.89608773	      6.38087255	     99.44114710	      1.73557543	     24.16241491	      2.73750014	     -7.49999987	     97.11651555	     -5.76591646	      2.17616035	     96.66631362	      1.68714545	     17.17428890	     -8.45838935	     -7.49999987	    -23.06000446	     -0.58368810	     -4.44086654	     23.34190913	     -8.58651012	     -3.80284474	    121.25227854	    109.06697670	     18.68882743	     -8.41270372	     -7.55655107	    124.20480783	    104.00471767
     10.51000000	     -9.45126984	      1.74845551	      2.10102752	     -0.52206463	      0.57292956	     -0.60698306	     97.38871209	     -9.96483745	      6.44940469	     99.60338108	      1.73840695	     23.94606342	      2.74135051	     -7.49999987	     96.73250122	     -5.72957306	      2.16854635	     96.86619820	      1.69063409	     16.99418360	     -8.45969962	     -7.49999987	    -23.07737825	     -0.47929783	     -4.41517252	     22.63448504	     -8.63695370	     -3.74756744	    121.19216621	    109.06308978	     18.01642312	     -8.29091620	     -7.53200614	    124.17613550	    104.01098411
     10.52000000	     -7.96683612	      1.64878809	      2.08562619	     -0.52641623	      0.57202457	     -0.60720316	     96.40397477	    -10.01152693	      6.37794913	     99.79310130	      1.74171819	     23.28277717	      2.72098340	     -7.49999987	     95.82678277	     -5.80538942	      2.23227779	     97.10282667	      1.69476404	     16.43302787	     -8.44192971	     -7.49999987	    -23.84544887	     -0.21271034	     -4.28142808	     22.28705943	     -8.75813788	     -3.73957856	    121.24156024	    109.05611362	     17.68622590	     -8.09582363	     -7.60595551	    124.13412283	    104.01617481
     10.53000000	     -6.60785844	      1.42799548	      2.00976396	     -0.53079777	      0.57145232	     -0.60716835	     95.39051112	     -9.89604995	      6.18472153	     99.80820881	      1.74198186	     22.67862251	      2.53503446	     -7.49999987	     94.98612889	     -5.96482500	      2.44745599	     97.20889034	      1.69661520	     15.95805741	     -8.49297827	     -7.49999987	    -24.52382037	      0.13296599	     -4.08333340	     21.84962655	     -8.72793186	     -3.81013532	    121.26853213	    109.05287809	     17.22798335	     -7.93879437	     -7.61676723	    124.00385295	    103.99780407
     10.54000000	     -5.25243449	      1.18790158	      2.01799768	     -0.53520375	      0.57148475	     -0.60729663	     94.28831413	     -9.88323703	      5.92759830	     99.74058927	      1.74080168	     21.99698155	      2.29934169	     -7.49999987	     94.06950462	     -6.07462521	      2.61638492	     97.22299441	      1.69686136	     15.48943051	     -8.48866662	     -7.49999987	    -25.28259252	      0.49825054	     -3.98134982	     21.35579346	     -8.69007537	     -3.88166143	    121.20600887	    109.05151195	     16.82306499	     -7.83488617	     -7.54545795	    123.82660412	    103.96323802
     10.55000000	     -3.95465961	      0.97695518	      2.12043738	     -0.53955938	      0.57215667	     -0.60756123	     93.13522596	     -9.96564090	      5.67988972	     99.56243107	      1.73769223	     21.27807917	      2.03784314	     -7.49999987	     93.10257164	     -6.10791721	      2.71622268	     97.11844715	      1.69503667	     15.05225847	     -8.42836686	     -7.49999987	    -26.01722773	      0.81668737	     -3.94017824	     20.73745294	     -8.67222876	     -3.93767735	    121.06583164	    109.03962804	     16.34716810	     -7.64776279	     -7.51885383	    123.70027255	    103.94667173
     10.56000000	     -2.76816566	      0.76132397	      2.23860554	     -0.54384417	      0.57327608	     -0.60798206	     92.01147872	    -10.05363339	      5.42971903	     99.28289446	      1.73281340	     20.62011708	      1.74909665	     -7.49999987	     92.14695308	     -6.10249399	      2.84661562	     96.94187018	      1.69195482	     14.71189198	     -8.35573117	     -7.49999987	    -26.64772572	      1.20110876	     -3.87160763	     20.00156227	     -8.65025289	     -4.07514203	    120.87194912	    109.01070411	     15.67094999	     -7.26124551	     -7.61922486	    123.58924185	    103.95318348
     10.57000000	     -1.66957183	      0.54521266	      2.37075336	     -0.54801063	      0.57459245	     -0.60846980	     90.89989055	    -10.14142113	      5.18046386	     98.95658508	      1.72711823	     20.08312444	      1.43897193	     -7.49999987	     91.22516247	     -6.05530304	      3.02430408	     96.73361651	      1.68832011	     14.46906814	     -8.28218430	     -7.49999987	    -27.18831254	      1.59597030	     -3.81603159	     19.20201663	     -8.54084454	     -4.27833663	    120.69400420	    108.97804751	     14.85242903	     -6.81037367	     -7.72711406	    123.38965385	    103.96384723
     10.58000000	     -0.64196740	      0.41653858	      2.59790743	     -0.55210682	      0.57588601	     -0.60922359	     89.86195715	    -10.33485559	      5.06380270	     98.66723007	      1.72206803	     19.65750286	      1.26448567	     -7.49999987	     90.34647373	     -5.90910236	      3.07404289	     96.48581767	      1.68399520	     14.24256961	     -8.18468262	     -7.49999987	    -27.65826601	      1.91965084	     -3.89557917	     18.35555098	     -8.37136183	     -4.46583357	    120.53027284	    108.95445885	     14.03701748	     -6.45676112	     -7.71558678	    123.12107075	    103.96599819
     10.59000000	      0.39646470	      0.37765546	      2.84060127	     -0.55605335	      0.57733141	     -0.61004283	     88.81773411	    -10.56203962	      5.04379488	     98.39992709	      1.71740271	     19.21121213	      1.13832207	     -7.49999987	     89.38802123	     -5.72898233	      3.04437374	     96.22522801	      1.67944705	     13.94287465	     -8.09646517	     -7.49999987	    -28.16485733	      2.14352066	     -4.04414029	     17.45717894	     -8.19884611	     -4.64080320	    120.38953317	    108.93603628	     13.28652131	     -6.11664188	     -7.65174761	    122.84041644	    103.97579211
     10.60000000	      1.43138640	      0.37373932	      2.99839908	     -0.55983545	      0.57885854	     -0.61040162	     87.75193922	    -10.64438396	      5.06741216	     98.11135283	      1.71236614	     18.75588931	      0.95453259	     -7.49999987	     88.39564058	     -5.65584393	      2.99805950	     95.93660158	      1.67440957	     13.57902491	     -8.04899154	     -7.49999987	    -28.64194409	      2.23365832	     -4.07965052	     16.50197250	     -8.05168888	     -4.76823918	    120.25167079	    108.91443737	     12.51192952	     -5.77712199	     -7.57032155	    122.55927395	    103.99233186
     10.61000000	      2.10252215	      0.36047877	      3.05860520	     -0.56328826	      0.57958861	     -0.61033411	     87.11505815	    -10.54569082	      5.13775356	     97.84204460	      1.70766583	     18.58041997	      0.94072706	     -7.49999987	     87.80839431	     -5.68993956	      2.97887322	     95.67575495	      1.66985694	     13.42708094	     -7.99462427	     -7.49999987	    -28.64235096	      2.24836224	     -4.12490566	     15.39519040	     -7.93163086	     -4.70694863	    120.09679300	    108.90776913	     11.44771361	     -5.53529491	     -7.45957464	    122.38139952	    103.98637098
     10.62000000	      3.37554139	      0.45385703	      3.07074448	     -0.56721955	      0.58163052	     -0.61009247	     85.80704506	    -10.49138593	      5.09783176	     97.43984552	      1.70064613	     17.17216467	     -0.07588917	     -7.49999987	     86.45568737	     -5.83296574	      2.79032462	     95.26455610	      1.66268016	     12.50701731	     -8.34809591	     -7.49999987	    -29.46404616	      2.13236071	     -3.77321347	     14.45823900	     -7.79295210	     -5.36618663	    120.18035112	    108.87983898	     11.13186625	     -5.35295931	     -6.93172343	    121.79511622	    103.95034629
     10.63000000	      4.32711103	      0.53922964	      3.17381688	     -0.57067355	      0.58271026	     -0.61016838	     84.89423684	    -10.52826332	      5.15931218	     97.15341044	      1.69564689	     16.49599830	      0.04720481	     -7.49999987	     85.50619805	     -5.80048406	      2.68899474	     94.95507026	      1.65727862	     12.02079435	     -8.24893470	     -7.49999987	    -29.81068428	      2.08797842	     -3.79285694	     13.58695464	     -7.61063614	     -5.53358900	    120.01024360	    108.86289569	     10.39430248	     -5.25010520	     -6.75877299	    121.48523186	    103.92072191
     10.64000000	      5.33122062	      0.60212350	      3.28761718	     -0.57399860	      0.58384578	     -0.61012590	     83.89903212	    -10.53201605	      5.18570285	     96.91322834	      1.69145492	     15.94573182	     -0.02983609	     -7.49999987	     84.50641567	     -5.81413208	      2.55667949	     94.64898570	      1.65193643	     11.55709681	     -8.25195116	     -7.49999987	    -30.26975264	      2.02520555	     -3.77838480	     12.73403848	     -7.43832202	     -5.74728875	    119.89721805	    108.83619895	      9.76229903	     -5.13592474	     -6.58030828	    121.20201754	    103.88994252
